<svg id="svg" version="1.1" xmlns="http://www.w3.org/2000/svg" xmlns:xlink="http://www.w3.org/1999/xlink" width="400" height="400" viewBox="0, 0, 400,400"><g id="svgg"><path id="path0" d="M0.000 200.000 L 0.000 400.000 200.000 400.000 L 400.000 400.000 400.000 200.000 L 400.000 0.000 200.000 0.000 L 0.000 0.000 0.000 200.000 M202.534 76.048 C 205.031 77.457,205.054 77.140,201.973 83.699 C 197.342 93.554,197.604 92.849,198.266 93.666 C 198.825 94.357,198.925 94.188,202.503 86.491 C 204.518 82.156,206.248 78.557,206.347 78.494 C 206.483 78.408,232.359 93.351,232.953 93.859 C 233.018 93.915,229.622 100.300,225.406 108.048 C 218.043 121.576,217.759 122.165,218.248 122.911 C 218.528 123.338,218.791 123.645,218.833 123.594 C 218.875 123.542,222.394 117.087,226.652 109.250 C 230.910 101.412,234.519 95.000,234.670 95.000 C 234.822 95.000,240.696 98.359,247.723 102.464 L 260.500 109.928 260.500 129.380 L 260.500 148.833 255.066 158.655 C 250.116 167.601,249.668 168.546,250.042 169.245 C 250.593 170.275,250.378 170.594,255.520 161.159 C 258.016 156.580,260.195 152.691,260.362 152.517 C 260.546 152.325,260.667 157.768,260.667 166.272 L 260.667 180.343 259.589 180.999 C 258.263 181.805,258.641 182.176,254.206 175.708 C 250.766 170.691,250.682 170.601,250.292 171.457 C 249.919 172.275,250.110 172.649,253.280 177.304 C 255.143 180.039,256.659 182.402,256.650 182.555 C 256.634 182.836,238.000 193.732,238.000 193.460 C 238.000 193.379,240.248 189.201,242.996 184.175 C 249.709 171.894,249.545 172.248,248.933 171.374 C 248.465 170.706,248.107 171.280,242.164 182.251 C 238.712 188.621,235.622 194.219,235.297 194.691 C 234.731 195.511,215.674 206.917,214.415 207.189 C 213.998 207.279,212.599 205.789,209.457 201.907 C 202.870 193.769,190.679 178.901,190.128 178.333 C 189.697 177.889,189.607 177.889,189.326 178.333 C 188.779 179.198,188.925 179.456,192.267 183.523 C 194.064 185.711,199.314 192.102,203.934 197.727 C 208.554 203.352,212.333 208.103,212.333 208.284 C 212.333 208.791,200.895 215.333,200.009 215.333 C 199.386 215.333,178.937 203.746,176.792 202.177 C 176.298 201.816,176.888 200.585,182.310 190.655 C 187.884 180.447,188.349 179.467,187.995 178.688 C 187.478 177.553,187.797 177.052,180.801 189.964 C 177.562 195.942,174.870 200.883,174.819 200.943 C 174.767 201.003,170.158 198.388,164.576 195.132 L 154.427 189.212 155.506 186.856 C 156.100 185.560,159.531 178.213,163.129 170.529 C 169.476 156.975,169.656 156.533,169.141 155.747 C 168.621 154.954,168.447 155.284,160.819 171.552 C 156.534 180.690,152.874 188.130,152.685 188.085 C 151.944 187.908,139.598 180.542,139.467 180.199 C 139.391 179.998,139.367 166.190,139.414 149.514 L 139.500 119.196 151.653 134.014 C 158.336 142.165,164.861 150.136,166.153 151.727 L 168.500 154.621 168.942 153.782 C 169.315 153.075,169.309 152.855,168.907 152.388 C 168.468 151.879,152.009 131.799,143.084 120.884 L 139.310 116.268 139.405 113.091 L 139.500 109.913 147.333 105.343 C 151.642 102.829,162.401 96.549,171.243 91.386 C 180.085 86.224,187.457 82.000,187.624 82.000 C 187.792 82.000,189.873 84.846,192.249 88.324 C 196.459 94.486,196.579 94.625,196.967 93.773 C 197.401 92.821,197.488 92.973,191.475 84.212 C 189.694 81.617,189.319 80.866,189.693 80.647 C 189.953 80.494,192.192 79.167,194.667 77.698 C 199.781 74.662,199.997 74.617,202.534 76.048 M198.389 95.844 C 198.018 96.659,198.498 97.440,207.045 109.937 C 217.595 125.362,216.536 123.985,217.024 122.914 C 217.390 122.110,216.877 121.275,208.329 108.780 C 197.707 93.251,198.877 94.773,198.389 95.844 M183.079 124.019 C 169.550 152.926,169.103 154.000,170.612 154.000 C 171.359 154.000,197.706 96.721,197.276 96.032 C 197.036 95.648,196.763 95.336,196.670 95.338 C 196.576 95.341,190.461 108.247,183.079 124.019 M218.370 124.887 C 217.989 125.722,218.137 126.030,220.766 129.877 C 242.049 161.032,248.194 169.970,248.336 169.984 C 250.115 170.152,230.553 139.713,218.838 124.082 C 218.804 124.035,218.593 124.398,218.370 124.887 M213.289 130.256 C 211.523 133.507,205.476 144.618,199.852 154.948 C 187.476 177.679,188.382 175.858,189.094 176.570 C 189.781 177.257,187.773 180.702,202.826 153.000 C 209.949 139.892,216.205 128.399,216.728 127.462 C 217.647 125.815,217.660 125.732,217.090 125.051 C 216.509 124.356,216.453 124.433,213.289 130.256 M170.372 155.549 C 170.023 156.314,170.546 157.033,178.573 166.829 C 186.991 177.102,188.000 178.097,188.000 176.121 C 188.000 175.757,176.028 160.865,171.649 155.782 L 170.744 154.732 170.372 155.549 M120.333 247.572 C 120.333 248.026,122.718 266.496,122.785 266.563 C 122.822 266.600,123.499 262.551,124.289 257.565 C 125.079 252.579,125.797 248.237,125.885 247.917 C 126.021 247.420,130.921 246.943,131.017 247.417 C 131.026 247.463,131.744 251.901,132.613 257.280 L 134.192 267.059 135.455 257.780 C 136.149 252.676,136.791 248.237,136.881 247.917 C 137.050 247.315,141.668 246.993,141.665 247.583 C 141.665 247.721,140.690 253.373,139.499 260.143 C 138.308 266.914,137.333 272.502,137.333 272.560 C 137.333 272.619,135.945 272.667,134.248 272.667 L 131.164 272.667 129.818 264.107 L 128.472 255.548 127.160 264.107 L 125.847 272.667 122.757 272.667 C 121.057 272.667,119.667 272.619,119.667 272.560 C 119.667 272.502,118.692 266.914,117.501 260.143 C 116.310 253.373,115.335 247.721,115.335 247.583 C 115.334 247.446,116.458 247.333,117.833 247.333 C 119.208 247.333,120.333 247.441,120.333 247.572 M224.333 252.833 L 224.333 258.333 226.833 258.333 L 229.333 258.333 229.333 252.833 L 229.333 247.333 231.667 247.333 L 234.000 247.333 234.000 260.000 L 234.000 272.667 231.667 272.667 L 229.333 272.667 229.333 267.333 L 229.333 262.000 226.833 262.000 L 224.333 262.000 224.333 267.333 L 224.333 272.667 221.833 272.667 L 219.333 272.667 219.333 260.000 L 219.333 247.333 221.833 247.333 L 224.333 247.333 224.333 252.833 M245.000 251.167 L 245.000 253.000 246.333 253.000 C 247.743 253.000,247.733 252.986,247.733 255.167 C 247.733 255.625,247.718 256.150,247.700 256.333 C 247.682 256.517,247.067 256.667,246.333 256.667 L 245.000 256.667 245.000 262.433 C 245.000 268.654,245.091 269.000,246.733 269.000 C 247.645 269.000,247.667 269.044,247.667 270.869 L 247.667 272.737 245.005 272.616 C 242.626 272.508,242.246 272.398,241.422 271.574 L 240.500 270.653 240.398 263.660 L 240.296 256.667 239.315 256.667 C 238.347 256.667,238.333 256.640,238.333 254.833 C 238.333 253.019,238.343 253.000,239.333 253.000 C 240.323 253.000,240.333 252.981,240.333 251.167 L 240.333 249.333 242.667 249.333 L 245.000 249.333 245.000 251.167 M150.744 260.917 L 150.833 268.833 151.938 268.939 C 153.979 269.135,154.000 269.049,154.000 260.626 L 154.000 253.000 156.333 253.000 L 158.667 253.000 158.667 262.833 L 158.667 272.667 156.333 272.667 C 154.384 272.667,154.000 272.576,154.000 272.115 C 154.000 271.602,153.958 271.602,153.390 272.115 C 152.245 273.152,148.165 272.883,146.974 271.692 C 145.869 270.587,145.943 271.363,145.943 260.833 C 145.943 257.075,145.956 253.775,145.971 253.500 C 145.994 253.106,146.494 253.000,148.327 253.000 L 150.655 253.000 150.744 260.917 M169.333 253.519 C 169.333 253.989,169.404 253.989,170.074 253.519 C 170.913 252.932,174.128 252.812,175.461 253.318 C 177.298 254.017,177.399 254.559,177.452 263.995 L 177.500 272.667 175.089 272.667 L 172.679 272.667 172.589 264.750 L 172.500 256.833 171.395 256.727 C 169.355 256.531,169.333 256.617,169.333 265.041 L 169.333 272.667 167.000 272.667 L 164.667 272.667 164.667 262.833 L 164.667 253.000 167.000 253.000 C 168.890 253.000,169.333 253.099,169.333 253.519 M187.667 253.519 C 187.667 253.989,187.737 253.989,188.408 253.519 C 189.246 252.932,192.462 252.812,193.794 253.318 C 195.631 254.017,195.732 254.559,195.785 263.995 L 195.833 272.667 193.423 272.667 L 191.012 272.667 190.923 264.750 L 190.833 256.833 189.728 256.727 C 187.688 256.531,187.667 256.617,187.667 265.041 L 187.667 272.667 185.333 272.667 L 183.000 272.667 183.000 262.833 L 183.000 253.000 185.333 253.000 C 187.223 253.000,187.667 253.099,187.667 253.519 M208.355 253.345 C 208.800 253.583,209.000 253.583,209.000 253.345 C 209.000 253.138,209.999 253.000,211.500 253.000 L 214.000 253.000 214.000 262.833 L 214.000 272.667 211.500 272.667 C 209.999 272.667,209.000 272.529,209.000 272.322 C 209.000 272.084,208.800 272.084,208.355 272.322 C 206.249 273.449,201.993 272.417,201.369 270.627 C 200.727 268.785,200.880 255.807,201.557 254.660 C 202.470 253.115,206.477 252.340,208.355 253.345 M257.077 260.917 L 257.167 268.833 258.272 268.939 C 260.312 269.135,260.333 269.049,260.333 260.626 L 260.333 253.000 262.667 253.000 L 265.000 253.000 265.000 262.833 L 265.000 272.667 262.667 272.667 C 260.718 272.667,260.333 272.576,260.333 272.115 C 260.333 271.602,260.291 271.602,259.724 272.115 C 258.578 273.152,254.498 272.883,253.308 271.692 C 252.202 270.587,252.276 271.363,252.276 260.833 C 252.276 257.075,252.289 253.775,252.305 253.500 C 252.327 253.106,252.827 253.000,254.661 253.000 L 256.988 253.000 257.077 260.917 M275.333 253.519 C 275.333 253.989,275.404 253.989,276.074 253.519 C 276.913 252.932,280.128 252.812,281.461 253.318 C 283.298 254.017,283.399 254.559,283.452 263.995 L 283.500 272.667 281.089 272.667 L 278.679 272.667 278.589 264.750 L 278.500 256.833 277.395 256.727 C 275.355 256.531,275.333 256.617,275.333 265.041 L 275.333 272.667 273.000 272.667 L 270.667 272.667 270.667 262.833 L 270.667 253.000 273.000 253.000 C 274.890 253.000,275.333 253.099,275.333 253.519 M205.822 257.076 C 205.727 257.323,205.691 260.069,205.742 263.179 L 205.833 268.833 207.333 268.833 L 208.833 268.833 208.833 262.833 L 208.833 256.833 207.414 256.731 C 206.455 256.661,205.938 256.774,205.822 257.076 " stroke="none" fill="#f4f4f4" fill-rule="evenodd"></path><path id="path1" d="M194.250 78.096 C 191.729 79.585,189.667 80.931,189.667 81.086 C 189.667 81.325,196.647 91.661,197.329 92.432 C 197.458 92.577,199.164 89.292,201.121 85.132 C 203.078 80.971,204.638 77.531,204.589 77.486 C 201.605 74.755,199.713 74.867,194.250 78.096 M205.546 80.391 C 205.105 81.368,203.451 84.921,201.872 88.287 C 200.292 91.653,199.000 94.528,199.000 94.676 C 199.000 94.824,202.997 100.770,207.882 107.889 C 212.767 115.008,216.949 121.104,217.176 121.434 C 217.546 121.975,232.675 95.288,232.664 94.113 C 232.662 93.885,207.644 79.088,206.646 78.725 C 206.482 78.665,205.987 79.415,205.546 80.391 M183.167 84.585 C 180.783 85.991,170.058 92.263,159.333 98.523 L 139.833 109.904 139.744 113.202 L 139.654 116.500 154.541 134.622 L 169.428 152.744 171.140 149.122 C 172.082 147.130,178.172 134.137,184.674 120.250 C 191.176 106.362,196.575 95.000,196.671 95.000 C 196.767 95.000,197.081 95.389,197.370 95.864 L 197.894 96.728 198.308 95.728 C 198.664 94.869,198.636 94.596,198.113 93.798 L 197.504 92.868 197.188 93.768 C 196.710 95.126,196.702 95.118,192.115 88.349 C 189.760 84.874,187.758 82.031,187.667 82.030 C 187.575 82.029,185.550 83.179,183.167 84.585 M234.206 95.762 C 233.952 96.168,230.488 102.500,226.508 109.833 C 218.339 124.883,218.851 124.078,218.113 123.025 L 217.566 122.243 217.107 123.119 C 216.706 123.884,216.720 124.104,217.216 124.861 L 217.783 125.727 218.256 124.824 C 218.875 123.644,217.341 121.584,234.152 146.167 C 242.177 157.900,248.920 167.690,249.138 167.921 C 249.448 168.252,250.694 166.211,254.936 158.422 L 260.339 148.502 260.253 129.208 L 260.167 109.913 251.500 104.854 C 246.733 102.072,240.996 98.722,238.750 97.410 C 234.671 95.027,234.666 95.025,234.206 95.762 M184.348 125.656 C 176.955 141.429,170.814 154.333,170.700 154.333 C 170.587 154.333,170.289 154.005,170.039 153.605 L 169.584 152.876 169.114 153.771 C 168.856 154.264,168.587 154.667,168.516 154.667 C 168.445 154.667,161.990 146.867,154.173 137.333 C 146.356 127.800,139.894 120.000,139.813 120.000 C 139.733 120.000,139.672 133.612,139.679 150.250 L 139.691 180.500 146.043 184.167 C 149.536 186.183,152.534 187.833,152.704 187.833 C 152.875 187.833,156.444 180.513,160.636 171.566 C 169.165 153.361,168.494 154.605,169.225 155.648 L 169.768 156.423 170.233 155.535 C 170.843 154.371,170.047 153.548,179.684 165.302 C 186.086 173.109,188.254 175.546,188.529 175.239 C 189.057 174.653,216.333 124.424,216.333 124.039 C 216.333 123.717,198.964 98.212,198.196 97.406 C 197.872 97.066,195.050 102.823,184.348 125.656 M203.817 151.556 C 187.739 181.121,189.757 177.682,189.020 176.773 L 188.430 176.045 187.798 176.840 L 187.167 177.635 178.667 167.172 C 173.992 161.417,170.087 156.700,169.990 156.688 C 169.790 156.664,154.594 189.040,154.739 189.181 C 155.023 189.456,174.443 200.665,174.621 200.656 C 174.738 200.650,177.596 195.550,180.972 189.323 C 187.286 177.678,187.300 177.656,188.000 178.500 C 188.566 179.183,188.915 179.128,189.172 178.315 C 189.513 177.242,189.334 177.044,202.015 192.500 C 208.634 200.567,214.226 207.117,214.441 207.056 C 214.657 206.995,219.339 204.318,224.847 201.106 L 234.861 195.267 241.474 183.126 C 248.638 169.975,248.401 170.342,249.099 171.338 C 249.573 172.015,249.581 172.013,250.147 171.150 L 250.717 170.280 254.214 175.390 C 256.137 178.200,257.834 180.713,257.984 180.973 C 258.212 181.370,258.424 181.377,259.295 181.016 L 260.333 180.586 260.329 166.710 L 260.325 152.833 259.564 154.167 C 259.145 154.900,257.031 158.762,254.866 162.750 C 250.821 170.197,250.626 170.459,249.932 169.349 C 249.539 168.719,249.508 168.725,248.969 169.547 L 248.412 170.396 246.919 168.282 C 246.097 167.118,239.313 157.242,231.843 146.333 C 224.373 135.425,218.146 126.375,218.004 126.223 C 217.862 126.070,211.478 137.470,203.817 151.556 M243.941 182.750 C 240.915 188.296,238.479 192.884,238.527 192.946 C 238.778 193.270,256.624 182.536,256.408 182.190 C 254.916 179.800,249.888 172.667,249.695 172.667 C 249.556 172.667,246.967 177.204,243.941 182.750 M183.903 188.083 C 181.391 192.713,178.676 197.704,177.871 199.175 L 176.407 201.849 187.680 208.425 C 195.800 213.161,199.244 215.000,199.994 215.000 C 201.051 215.000,212.385 208.763,212.237 208.263 C 212.109 207.830,188.922 179.667,188.695 179.667 C 188.572 179.667,186.416 183.454,183.903 188.083 M115.685 248.250 C 115.696 248.754,116.639 254.417,117.783 260.833 L 119.861 272.500 122.764 272.596 C 124.360 272.649,125.667 272.611,125.667 272.512 C 125.667 271.852,128.372 255.517,128.503 255.386 C 128.593 255.296,128.667 255.360,128.668 255.528 C 128.669 255.696,129.269 259.556,130.002 264.105 C 130.734 268.654,131.333 272.448,131.333 272.535 C 131.333 272.622,132.640 272.649,134.236 272.596 L 137.139 272.500 139.217 260.833 C 141.854 246.036,141.854 247.333,139.215 247.333 L 137.097 247.333 135.855 256.417 C 135.171 261.412,134.498 265.950,134.359 266.500 C 134.073 267.629,134.259 268.552,132.081 255.167 L 130.833 247.500 128.500 247.500 L 126.167 247.500 124.476 257.667 C 123.110 265.881,122.742 267.577,122.560 266.500 C 122.436 265.767,121.884 261.492,121.333 257.000 C 120.010 246.214,120.416 247.333,117.827 247.333 C 115.688 247.333,115.667 247.342,115.685 248.250 M219.667 260.000 L 219.667 272.667 221.833 272.667 L 224.000 272.667 224.000 267.333 L 224.000 262.000 226.667 262.000 L 229.333 262.000 229.333 267.333 L 229.333 272.667 231.667 272.667 L 234.000 272.667 234.000 259.985 L 234.000 247.303 231.750 247.401 L 229.500 247.500 229.408 252.917 L 229.317 258.333 226.658 258.333 L 224.000 258.333 224.000 252.833 L 224.000 247.333 221.833 247.333 L 219.667 247.333 219.667 260.000 M240.667 251.333 C 240.667 252.963,240.644 253.000,239.667 253.000 C 238.656 253.000,238.013 256.252,239.000 256.375 C 239.183 256.398,239.483 256.454,239.667 256.500 C 239.850 256.546,240.150 256.602,240.333 256.625 C 240.543 256.651,240.667 259.134,240.667 263.318 C 240.667 272.009,240.817 272.314,245.250 272.599 L 247.667 272.754 247.667 270.897 L 247.667 269.040 246.417 268.937 L 245.167 268.833 245.167 262.667 L 245.167 256.500 246.417 256.529 L 247.667 256.558 247.667 254.779 L 247.667 253.000 246.333 253.000 L 245.000 253.000 245.000 251.333 L 245.000 249.667 242.833 249.667 L 240.667 249.667 240.667 251.333 M146.068 261.826 L 146.167 270.653 147.015 271.501 C 148.526 273.011,152.291 273.067,153.657 271.600 L 154.333 270.874 154.333 271.770 C 154.333 272.651,154.371 272.667,156.500 272.667 L 158.667 272.667 158.667 262.833 L 158.667 253.000 156.339 253.000 L 154.012 253.000 153.923 260.909 L 153.833 268.818 152.930 269.135 C 152.317 269.351,151.755 269.329,151.180 269.067 L 150.333 268.681 150.333 260.840 L 150.333 253.000 148.151 253.000 L 145.969 253.000 146.068 261.826 M164.667 262.833 L 164.667 272.667 167.000 272.667 L 169.333 272.667 169.333 264.823 C 169.333 256.127,169.327 256.149,171.660 256.561 C 172.950 256.789,172.989 257.043,172.995 265.083 L 173.000 272.667 175.167 272.667 L 177.333 272.667 177.328 264.250 C 177.323 254.951,177.247 254.546,175.329 253.584 C 173.527 252.680,169.667 253.000,169.667 254.054 C 169.667 254.207,169.517 254.333,169.333 254.333 C 169.150 254.333,169.000 254.033,169.000 253.667 C 169.000 253.068,168.778 253.000,166.833 253.000 L 164.667 253.000 164.667 262.833 M183.000 262.833 L 183.000 272.667 185.333 272.667 L 187.667 272.667 187.667 264.823 C 187.667 256.127,187.660 256.149,189.993 256.561 C 191.283 256.789,191.323 257.043,191.328 265.083 L 191.333 272.667 193.500 272.667 L 195.667 272.667 195.662 264.250 C 195.656 254.951,195.580 254.546,193.662 253.584 C 191.860 252.680,188.000 253.000,188.000 254.054 C 188.000 254.207,187.850 254.333,187.667 254.333 C 187.483 254.333,187.333 254.033,187.333 253.667 C 187.333 253.068,187.111 253.000,185.167 253.000 L 183.000 253.000 183.000 262.833 M203.110 253.468 C 201.264 254.302,201.167 254.774,201.167 262.848 C 201.167 271.124,201.286 271.603,203.527 272.342 C 205.112 272.865,207.825 272.595,208.670 271.830 C 209.313 271.249,209.333 271.252,209.333 271.948 C 209.333 272.610,209.504 272.667,211.500 272.667 L 213.667 272.667 213.667 262.833 L 213.667 253.000 211.500 253.000 C 209.387 253.000,209.333 253.021,209.333 253.870 L 209.333 254.741 208.716 253.978 C 207.937 253.016,204.750 252.726,203.110 253.468 M252.401 261.826 L 252.500 270.653 253.349 271.501 C 254.860 273.011,258.624 273.067,259.991 271.600 L 260.667 270.874 260.667 271.770 C 260.667 272.651,260.704 272.667,262.833 272.667 L 265.000 272.667 265.000 262.833 L 265.000 253.000 262.673 253.000 L 260.345 253.000 260.256 260.909 L 260.167 268.818 259.263 269.135 C 258.650 269.351,258.088 269.329,257.513 269.067 L 256.667 268.681 256.667 260.840 L 256.667 253.000 254.484 253.000 L 252.302 253.000 252.401 261.826 M270.667 262.833 L 270.667 272.667 273.000 272.667 L 275.333 272.667 275.333 264.823 C 275.333 256.127,275.327 256.149,277.660 256.561 C 278.950 256.789,278.989 257.043,278.995 265.083 L 279.000 272.667 281.167 272.667 L 283.333 272.667 283.328 264.250 C 283.323 254.951,283.247 254.546,281.329 253.584 C 279.527 252.680,275.667 253.000,275.667 254.054 C 275.667 254.207,275.517 254.333,275.333 254.333 C 275.150 254.333,275.000 254.033,275.000 253.667 C 275.000 253.068,274.778 253.000,272.833 253.000 L 270.667 253.000 270.667 262.833 M209.071 257.104 C 209.398 257.617,209.401 268.044,209.075 268.557 C 208.735 269.091,207.197 269.441,206.357 269.174 C 205.228 268.816,205.285 256.777,206.417 256.588 C 207.517 256.404,208.783 256.650,209.071 257.104 " stroke="none" fill="#353d45" fill-rule="evenodd"></path><path id="path2" d="M199.417 75.230 C 199.737 75.314,200.262 75.314,200.583 75.230 C 200.904 75.146,200.642 75.077,200.000 75.077 C 199.358 75.077,199.096 75.146,199.417 75.230 M197.840 91.980 C 197.707 92.398,197.461 92.582,197.226 92.441 C 197.004 92.308,197.032 92.451,197.291 92.769 C 197.542 93.080,197.830 93.333,197.930 93.333 C 198.029 93.333,198.016 93.239,197.901 93.123 C 197.785 93.007,197.847 92.619,198.039 92.261 C 198.230 91.903,198.314 91.536,198.224 91.446 C 198.134 91.357,197.961 91.597,197.840 91.980 M139.476 110.110 C 139.382 110.353,139.351 111.891,139.406 113.526 L 139.506 116.500 139.669 113.083 C 139.832 109.693,139.804 109.256,139.476 110.110 M260.333 129.100 L 260.500 148.500 260.586 129.353 C 260.633 118.822,260.558 110.092,260.419 109.953 C 260.280 109.814,260.242 118.430,260.333 129.100 M139.415 149.917 L 139.496 180.500 139.583 150.200 L 139.670 119.900 140.418 120.531 C 141.088 121.096,141.082 121.066,140.359 120.248 C 139.914 119.745,139.502 119.333,139.442 119.333 C 139.382 119.333,139.370 133.096,139.415 149.917 M260.270 152.583 C 260.213 152.721,260.244 159.058,260.339 166.667 L 260.511 180.500 260.589 166.417 C 260.659 153.712,260.614 151.748,260.270 152.583 M250.070 171.250 C 249.169 172.536,248.423 174.090,249.126 173.217 C 249.399 172.877,249.781 172.698,249.974 172.817 C 250.188 172.950,250.248 172.831,250.126 172.515 C 250.016 172.229,250.172 171.621,250.471 171.164 C 251.212 170.033,250.871 170.106,250.070 171.250 M188.190 179.107 C 188.276 179.331,188.647 179.702,189.014 179.931 C 189.631 180.317,189.650 180.297,189.265 179.681 C 188.796 178.930,187.949 178.478,188.190 179.107 M199.417 215.230 C 199.737 215.314,200.262 215.314,200.583 215.230 C 200.904 215.146,200.642 215.077,200.000 215.077 C 199.358 215.077,199.096 215.146,199.417 215.230 M219.485 260.000 C 219.485 267.058,219.529 269.946,219.583 266.417 C 219.637 262.887,219.637 257.112,219.583 253.583 C 219.529 250.054,219.485 252.942,219.485 260.000 M224.136 252.833 C 224.136 255.950,224.186 257.270,224.248 255.766 C 224.309 254.263,224.310 251.713,224.248 250.100 C 224.187 248.487,224.137 249.717,224.136 252.833 M240.395 251.250 L 240.457 253.167 240.579 251.432 L 240.700 249.696 242.934 249.580 L 245.167 249.464 242.750 249.399 L 240.333 249.333 240.395 251.250 M150.402 260.730 C 150.364 265.074,150.446 268.697,150.583 268.782 C 150.721 268.868,150.795 266.589,150.747 263.719 C 150.584 253.840,150.470 252.852,150.402 260.730 M209.026 253.270 C 209.012 253.510,208.839 253.606,208.642 253.485 C 208.445 253.363,208.483 253.584,208.725 253.976 C 209.189 254.725,209.582 254.141,209.219 253.244 C 209.094 252.936,209.046 252.942,209.026 253.270 M213.814 262.833 C 213.814 268.333,213.860 270.630,213.916 267.937 C 213.972 265.244,213.972 260.744,213.916 257.937 C 213.860 255.130,213.815 257.333,213.814 262.833 M238.393 254.750 C 238.342 256.378,238.421 256.666,238.917 256.662 C 239.307 256.658,239.369 256.573,239.105 256.405 C 238.887 256.267,238.652 255.407,238.581 254.494 L 238.453 252.833 238.393 254.750 M256.735 260.730 C 256.698 265.074,256.779 268.697,256.917 268.782 C 257.054 268.868,257.128 266.589,257.081 263.719 C 256.918 253.840,256.804 252.852,256.735 260.730 M240.474 263.333 C 240.474 267.092,240.523 268.629,240.582 266.750 C 240.641 264.871,240.641 261.796,240.582 259.917 C 240.523 258.037,240.474 259.575,240.474 263.333 M172.810 265.000 C 172.810 269.308,172.858 271.071,172.916 268.917 C 172.974 266.762,172.974 263.237,172.916 261.083 C 172.858 258.929,172.810 260.692,172.810 265.000 M191.143 265.000 C 191.143 269.308,191.191 271.071,191.249 268.917 C 191.307 266.762,191.307 263.237,191.249 261.083 C 191.191 258.929,191.143 260.692,191.143 265.000 M209.136 262.833 C 209.136 265.950,209.186 267.270,209.248 265.766 C 209.309 264.263,209.310 261.713,209.248 260.100 C 209.187 258.487,209.137 259.717,209.136 262.833 M278.810 265.000 C 278.810 269.308,278.858 271.071,278.916 268.917 C 278.974 266.762,278.974 263.237,278.916 261.083 C 278.858 258.929,278.810 260.692,278.810 265.000 M224.136 267.333 C 224.136 270.358,224.186 271.596,224.248 270.083 C 224.310 268.571,224.310 266.096,224.248 264.583 C 224.186 263.071,224.136 264.308,224.136 267.333 M153.895 271.250 C 153.815 271.387,153.871 271.800,154.018 272.167 C 154.252 272.749,154.289 272.717,154.310 271.917 C 154.333 271.012,154.177 270.762,153.895 271.250 M260.228 271.250 C 260.149 271.387,260.204 271.800,260.352 272.167 C 260.586 272.749,260.623 272.717,260.643 271.917 C 260.666 271.012,260.510 270.762,260.228 271.250 M208.624 271.897 C 208.373 272.208,208.341 272.357,208.555 272.229 C 208.768 272.101,209.019 272.184,209.112 272.415 C 209.205 272.645,209.293 272.496,209.307 272.083 C 209.339 271.185,209.227 271.155,208.624 271.897 " stroke="none" fill="#cccccc" fill-rule="evenodd"></path><path id="path3" d="" stroke="none" fill="#c4e4f8" fill-rule="evenodd"></path><path id="path4" d="" stroke="none" fill="#c4e4f8" fill-rule="evenodd"></path></g></svg>